<svg width="177" height="52" viewBox="0 0 177 52" fill="none" xmlns="http://www.w3.org/2000/svg">
<path fill-rule="evenodd" clip-rule="evenodd" d="M4.91342 1.40158C4.91342 2.19958 5.62542 3.25058 6.49542 3.73758C7.93642 4.54358 7.93242 4.97058 6.45742 8.50058C5.56642 10.6336 4.10742 13.1856 3.21442 14.1716C2.32242 15.1576 1.85142 16.2226 2.16742 16.5396C2.48442 16.8556 2.10642 18.6386 1.32842 20.5006C-0.702581 25.3616 -0.335581 26.0896 1.95742 21.7486L3.91342 18.0446L6.89042 19.7486C9.33842 21.1486 10.2224 21.2306 11.8604 20.2116C13.5344 19.1706 13.9964 19.2506 14.7424 20.7116C16.6494 24.4436 16.8554 29.0846 15.2994 33.2386C14.4314 35.5556 13.5804 38.7486 13.4074 40.3336C13.2354 41.9186 12.1404 44.5066 10.9744 46.0836C8.08542 49.9906 10.1504 49.7416 13.2254 45.8116L15.6824 42.6726L16.9994 46.3116C17.7234 48.3136 18.6744 49.9516 19.1144 49.9516C20.3014 49.9516 20.0964 48.4486 18.2954 43.9496C16.7584 40.1076 16.7814 39.6716 18.7634 35.1786C19.9104 32.5786 20.8624 31.0366 20.8804 31.7516C20.8984 32.4656 20.2674 34.3006 19.4764 35.8286C18.1764 38.3436 18.2624 39.2156 20.3864 45.0296L22.7314 51.4516L23.9384 48.4516C24.6024 46.8016 25.1024 44.3266 25.0504 42.9516C24.5384 29.4646 24.7364 27.9256 27.8454 21.2826C30.0004 16.6776 30.6204 14.3886 29.8434 13.9086C29.2234 13.5246 30.3354 12.9076 32.3144 12.5366C36.3304 11.7826 36.9894 10.4276 33.8284 9.42458C32.3894 8.96758 30.9944 9.46558 29.3284 11.0316C28.0004 12.2796 26.9134 12.8266 26.9134 12.2486C26.9134 11.6696 27.5884 10.6366 28.4134 9.95158C30.5704 8.16158 30.2594 5.95158 27.8504 5.95158C26.4504 5.95158 25.8734 6.51458 26.0544 7.70158C26.4254 10.1326 23.7834 13.9516 21.7294 13.9516C20.7934 13.9516 19.3464 12.9796 18.5144 11.7926C17.3184 10.0846 16.7074 9.87758 15.5944 10.8016C14.4384 11.7606 14.2694 11.5426 14.6444 9.57758C15.2074 6.63158 13.6194 5.50358 10.9344 6.94058C8.39142 8.30158 8.31242 10.9816 10.7974 11.6316C12.1544 11.9866 12.5284 12.7286 12.1354 14.2876C11.2044 17.9756 8.94142 18.8366 6.52642 16.4216C5.15342 15.0486 5.26142 14.2806 7.58242 8.92858C9.69342 4.06058 9.93942 2.68758 8.91842 1.45858C7.32742 -0.459422 4.91342 -0.493421 4.91342 1.40158ZM19.4424 17.7576C19.8274 18.6896 20.4614 21.9266 20.8504 24.9516L21.5584 30.4516L21.9864 23.3926C22.3674 17.0916 22.2164 16.3196 20.5774 16.1986C19.2234 16.0986 18.9254 16.5076 19.4424 17.7576Z" fill="black"/>
<path d="M47.6724 16.364L47.6164 16.882L47.9244 16.49L51.2844 12.696H53.9164L49.6604 17.316L53.9304 23H51.3544L48.1764 18.604L47.6724 19.108V23H45.6144V12.696H47.6724V16.364ZM55.0098 23L59.6578 12.29H59.7698L64.4178 23H62.0658L59.0978 15.468L60.5678 14.46L57.0118 23H55.0098ZM58.1878 19.276H61.2818L61.9958 20.984H57.5578L58.1878 19.276ZM66.6198 12.696H68.6498V21.04H73.4938V23H66.6198V12.696ZM76.2886 12.696H78.3186V23H76.2886V12.696ZM90.904 23.42L83.092 16.364L83.694 16.7L83.736 23H81.678V12.29H81.762L89.406 19.318L88.958 19.122L88.916 12.696H90.96V23.42H90.904ZM93.6836 17.862C93.6836 17.1527 93.8189 16.4807 94.0896 15.846C94.3603 15.2113 94.7336 14.6513 95.2096 14.166C95.6949 13.6713 96.2549 13.284 96.8896 13.004C97.5243 12.724 98.2056 12.584 98.9336 12.584C99.6523 12.584 100.329 12.724 100.964 13.004C101.598 13.284 102.158 13.6713 102.644 14.166C103.138 14.6513 103.521 15.2113 103.792 15.846C104.072 16.4807 104.212 17.1527 104.212 17.862C104.212 18.59 104.072 19.2713 103.792 19.906C103.521 20.5407 103.138 21.1007 102.644 21.586C102.158 22.062 101.598 22.4353 100.964 22.706C100.329 22.9767 99.6523 23.112 98.9336 23.112C98.2056 23.112 97.5243 22.9767 96.8896 22.706C96.2549 22.4353 95.6949 22.062 95.2096 21.586C94.7336 21.1007 94.3603 20.5407 94.0896 19.906C93.8189 19.2713 93.6836 18.59 93.6836 17.862ZM95.7836 17.862C95.7836 18.3193 95.8629 18.7487 96.0216 19.15C96.1896 19.542 96.4183 19.892 96.7076 20.2C97.0063 20.4987 97.3469 20.732 97.7296 20.9C98.1216 21.068 98.5463 21.152 99.0036 21.152C99.4423 21.152 99.8483 21.068 100.222 20.9C100.604 20.732 100.936 20.4987 101.216 20.2C101.496 19.892 101.715 19.542 101.874 19.15C102.032 18.7487 102.112 18.3193 102.112 17.862C102.112 17.3953 102.028 16.9613 101.86 16.56C101.701 16.1587 101.477 15.8087 101.188 15.51C100.908 15.202 100.576 14.964 100.194 14.796C99.8109 14.628 99.3956 14.544 98.9476 14.544C98.4996 14.544 98.0843 14.628 97.7016 14.796C97.3189 14.964 96.9829 15.202 96.6936 15.51C96.4043 15.8087 96.1803 16.1587 96.0216 16.56C95.8629 16.9613 95.7836 17.3953 95.7836 17.862ZM105.219 12.766H107.599L109.797 19.234L109.475 19.094L111.393 14.32L112.331 17.106L109.363 23.476L105.219 12.766ZM110.385 12.766H112.401L114.935 19.024L114.571 18.968L116.461 12.766H118.645L114.669 23.448L110.385 12.766ZM121.13 12.696H128.158V14.656H123.16V16.854H127.584V18.814H123.16V21.04H128.354V23H121.13V12.696ZM139.529 12.696C140.378 12.696 141.097 12.8407 141.685 13.13C142.273 13.41 142.721 13.8113 143.029 14.334C143.337 14.8473 143.491 15.4587 143.491 16.168C143.491 16.588 143.425 17.0127 143.295 17.442C143.173 17.862 142.973 18.2447 142.693 18.59C142.422 18.9353 142.053 19.2153 141.587 19.43C141.129 19.6353 140.565 19.738 139.893 19.738H138.437V23H136.407V12.696H139.529ZM139.879 17.764C140.187 17.764 140.443 17.7127 140.649 17.61C140.854 17.498 141.013 17.3627 141.125 17.204C141.246 17.036 141.33 16.8633 141.377 16.686C141.433 16.5087 141.461 16.3547 141.461 16.224C141.461 16.1213 141.442 15.986 141.405 15.818C141.377 15.6407 141.311 15.4633 141.209 15.286C141.106 15.1087 140.947 14.9593 140.733 14.838C140.527 14.7167 140.247 14.656 139.893 14.656H138.437V17.764H139.879ZM145.377 17.862C145.377 17.1527 145.512 16.4807 145.783 15.846C146.054 15.2113 146.427 14.6513 146.903 14.166C147.388 13.6713 147.948 13.284 148.583 13.004C149.218 12.724 149.899 12.584 150.627 12.584C151.346 12.584 152.022 12.724 152.657 13.004C153.292 13.284 153.852 13.6713 154.337 14.166C154.832 14.6513 155.214 15.2113 155.485 15.846C155.765 16.4807 155.905 17.1527 155.905 17.862C155.905 18.59 155.765 19.2713 155.485 19.906C155.214 20.5407 154.832 21.1007 154.337 21.586C153.852 22.062 153.292 22.4353 152.657 22.706C152.022 22.9767 151.346 23.112 150.627 23.112C149.899 23.112 149.218 22.9767 148.583 22.706C147.948 22.4353 147.388 22.062 146.903 21.586C146.427 21.1007 146.054 20.5407 145.783 19.906C145.512 19.2713 145.377 18.59 145.377 17.862ZM147.477 17.862C147.477 18.3193 147.556 18.7487 147.715 19.15C147.883 19.542 148.112 19.892 148.401 20.2C148.7 20.4987 149.04 20.732 149.423 20.9C149.815 21.068 150.24 21.152 150.697 21.152C151.136 21.152 151.542 21.068 151.915 20.9C152.298 20.732 152.629 20.4987 152.909 20.2C153.189 19.892 153.408 19.542 153.567 19.15C153.726 18.7487 153.805 18.3193 153.805 17.862C153.805 17.3953 153.721 16.9613 153.553 16.56C153.394 16.1587 153.17 15.8087 152.881 15.51C152.601 15.202 152.27 14.964 151.887 14.796C151.504 14.628 151.089 14.544 150.641 14.544C150.193 14.544 149.778 14.628 149.395 14.796C149.012 14.964 148.676 15.202 148.387 15.51C148.098 15.8087 147.874 16.1587 147.715 16.56C147.556 16.9613 147.477 17.3953 147.477 17.862ZM158.629 12.696H160.659V21.04H165.503V23H158.629V12.696ZM167.136 23L171.784 12.29H171.896L176.544 23H174.192L171.224 15.468L172.694 14.46L169.138 23H167.136ZM170.314 19.276H173.408L174.122 20.984H169.684L170.314 19.276Z" fill="black"/>
<path d="M69.1622 44.964C69.0409 45.0947 68.8496 45.23 68.5882 45.37C68.3269 45.5007 68.0236 45.622 67.6782 45.734C67.3422 45.846 66.9969 45.9347 66.6422 46C66.2876 46.0747 65.9516 46.112 65.6342 46.112C64.7942 46.112 64.0382 45.9907 63.3662 45.748C62.6942 45.496 62.1202 45.1507 61.6442 44.712C61.1682 44.264 60.8042 43.7367 60.5522 43.13C60.3002 42.5233 60.1742 41.8607 60.1742 41.142C60.1742 40.1993 60.3142 39.3827 60.5942 38.692C60.8836 37.992 61.2709 37.4133 61.7562 36.956C62.2509 36.4893 62.8156 36.144 63.4502 35.92C64.0942 35.696 64.7662 35.584 65.4662 35.584C66.1289 35.584 66.7356 35.6587 67.2862 35.808C67.8369 35.948 68.3036 36.1253 68.6862 36.34L68.0282 38.23C67.8602 38.1367 67.6362 38.0433 67.3562 37.95C67.0762 37.8567 66.7916 37.782 66.5022 37.726C66.2129 37.6607 65.9562 37.628 65.7322 37.628C65.1722 37.628 64.6776 37.698 64.2482 37.838C63.8189 37.978 63.4549 38.188 63.1562 38.468C62.8669 38.748 62.6476 39.098 62.4982 39.518C62.3489 39.9287 62.2742 40.4093 62.2742 40.96C62.2742 41.4453 62.3582 41.884 62.5262 42.276C62.6942 42.6587 62.9276 42.9853 63.2262 43.256C63.5342 43.5267 63.8936 43.732 64.3042 43.872C64.7242 44.012 65.1862 44.082 65.6902 44.082C65.9796 44.082 66.2456 44.0633 66.4882 44.026C66.7309 43.9793 66.9362 43.9093 67.1042 43.816V42.57H65.3262V40.61H69.1622V44.964ZM70.5583 40.862C70.5583 40.1527 70.6936 39.4807 70.9643 38.846C71.2349 38.2113 71.6083 37.6513 72.0843 37.166C72.5696 36.6713 73.1296 36.284 73.7643 36.004C74.3989 35.724 75.0803 35.584 75.8083 35.584C76.527 35.584 77.2036 35.724 77.8383 36.004C78.473 36.284 79.033 36.6713 79.5183 37.166C80.013 37.6513 80.3956 38.2113 80.6663 38.846C80.9463 39.4807 81.0863 40.1527 81.0863 40.862C81.0863 41.59 80.9463 42.2713 80.6663 42.906C80.3956 43.5407 80.013 44.1007 79.5183 44.586C79.033 45.062 78.473 45.4353 77.8383 45.706C77.2036 45.9767 76.527 46.112 75.8083 46.112C75.0803 46.112 74.3989 45.9767 73.7643 45.706C73.1296 45.4353 72.5696 45.062 72.0843 44.586C71.6083 44.1007 71.2349 43.5407 70.9643 42.906C70.6936 42.2713 70.5583 41.59 70.5583 40.862ZM72.6583 40.862C72.6583 41.3193 72.7376 41.7487 72.8963 42.15C73.0643 42.542 73.2929 42.892 73.5823 43.2C73.8809 43.4987 74.2216 43.732 74.6043 43.9C74.9963 44.068 75.4209 44.152 75.8783 44.152C76.317 44.152 76.723 44.068 77.0963 43.9C77.479 43.732 77.8103 43.4987 78.0903 43.2C78.3703 42.892 78.5896 42.542 78.7483 42.15C78.907 41.7487 78.9863 41.3193 78.9863 40.862C78.9863 40.3953 78.9023 39.9613 78.7343 39.56C78.5756 39.1587 78.3516 38.8087 78.0623 38.51C77.7823 38.202 77.451 37.964 77.0683 37.796C76.6856 37.628 76.2703 37.544 75.8223 37.544C75.3743 37.544 74.9589 37.628 74.5763 37.796C74.1936 37.964 73.8576 38.202 73.5683 38.51C73.2789 38.8087 73.0549 39.1587 72.8963 39.56C72.7376 39.9613 72.6583 40.3953 72.6583 40.862ZM82.8302 35.696H84.8602V44.04H89.7042V46H82.8302V35.696ZM91.5189 35.696H97.9589V37.656H93.5489V39.994H97.3709V41.954H93.5489V46H91.5189V35.696ZM111.634 45.146C111.522 45.2393 111.312 45.3653 111.004 45.524C110.706 45.6827 110.337 45.8227 109.898 45.944C109.46 46.0653 108.974 46.1213 108.442 46.112C107.63 46.0933 106.902 45.9487 106.258 45.678C105.624 45.398 105.082 45.02 104.634 44.544C104.196 44.068 103.86 43.522 103.626 42.906C103.393 42.29 103.276 41.632 103.276 40.932C103.276 40.148 103.393 39.4293 103.626 38.776C103.869 38.1227 104.21 37.558 104.648 37.082C105.096 36.606 105.628 36.2373 106.244 35.976C106.86 35.7147 107.542 35.584 108.288 35.584C108.979 35.584 109.59 35.6773 110.122 35.864C110.654 36.0507 111.088 36.2513 111.424 36.466L110.626 38.384C110.393 38.2067 110.08 38.0247 109.688 37.838C109.306 37.642 108.862 37.544 108.358 37.544C107.966 37.544 107.588 37.628 107.224 37.796C106.87 37.9547 106.552 38.1833 106.272 38.482C106.002 38.7807 105.787 39.1307 105.628 39.532C105.47 39.924 105.39 40.3533 105.39 40.82C105.39 41.3147 105.46 41.7673 105.6 42.178C105.75 42.5887 105.96 42.9433 106.23 43.242C106.501 43.5313 106.823 43.7553 107.196 43.914C107.579 44.0727 108.008 44.152 108.484 44.152C109.035 44.152 109.506 44.0633 109.898 43.886C110.29 43.7087 110.589 43.522 110.794 43.326L111.634 45.146ZM112.758 40.862C112.758 40.1527 112.893 39.4807 113.164 38.846C113.435 38.2113 113.808 37.6513 114.284 37.166C114.769 36.6713 115.329 36.284 115.964 36.004C116.599 35.724 117.28 35.584 118.008 35.584C118.727 35.584 119.403 35.724 120.038 36.004C120.673 36.284 121.233 36.6713 121.718 37.166C122.213 37.6513 122.595 38.2113 122.866 38.846C123.146 39.4807 123.286 40.1527 123.286 40.862C123.286 41.59 123.146 42.2713 122.866 42.906C122.595 43.5407 122.213 44.1007 121.718 44.586C121.233 45.062 120.673 45.4353 120.038 45.706C119.403 45.9767 118.727 46.112 118.008 46.112C117.28 46.112 116.599 45.9767 115.964 45.706C115.329 45.4353 114.769 45.062 114.284 44.586C113.808 44.1007 113.435 43.5407 113.164 42.906C112.893 42.2713 112.758 41.59 112.758 40.862ZM114.858 40.862C114.858 41.3193 114.937 41.7487 115.096 42.15C115.264 42.542 115.493 42.892 115.782 43.2C116.081 43.4987 116.421 43.732 116.804 43.9C117.196 44.068 117.621 44.152 118.078 44.152C118.517 44.152 118.923 44.068 119.296 43.9C119.679 43.732 120.01 43.4987 120.29 43.2C120.57 42.892 120.789 42.542 120.948 42.15C121.107 41.7487 121.186 41.3193 121.186 40.862C121.186 40.3953 121.102 39.9613 120.934 39.56C120.775 39.1587 120.551 38.8087 120.262 38.51C119.982 38.202 119.651 37.964 119.268 37.796C118.885 37.628 118.47 37.544 118.022 37.544C117.574 37.544 117.159 37.628 116.776 37.796C116.393 37.964 116.057 38.202 115.768 38.51C115.479 38.8087 115.255 39.1587 115.096 39.56C114.937 39.9613 114.858 40.3953 114.858 40.862ZM126.85 42.192C126.85 42.5187 126.948 42.8313 127.144 43.13C127.34 43.4287 127.596 43.6713 127.914 43.858C128.24 44.0447 128.595 44.138 128.978 44.138C129.398 44.138 129.771 44.0447 130.098 43.858C130.424 43.6713 130.681 43.4287 130.868 43.13C131.064 42.8313 131.162 42.5187 131.162 42.192V35.696H133.164V42.234C133.164 42.99 132.977 43.662 132.604 44.25C132.23 44.8287 131.726 45.286 131.092 45.622C130.457 45.9487 129.752 46.112 128.978 46.112C128.212 46.112 127.512 45.9487 126.878 45.622C126.252 45.286 125.753 44.8287 125.38 44.25C125.006 43.662 124.82 42.99 124.82 42.234V35.696H126.85V42.192ZM138.454 35.696C139.098 35.696 139.672 35.78 140.176 35.948C140.68 36.1067 141.1 36.34 141.436 36.648C141.781 36.9467 142.042 37.3107 142.22 37.74C142.397 38.16 142.486 38.636 142.486 39.168C142.486 39.588 142.42 40.008 142.29 40.428C142.168 40.848 141.963 41.2307 141.674 41.576C141.394 41.9213 141.02 42.2013 140.554 42.416C140.087 42.6213 139.508 42.724 138.818 42.724H137.362V46H135.332V35.696H138.454ZM138.804 40.764C139.112 40.764 139.368 40.7127 139.574 40.61C139.779 40.5073 139.938 40.3767 140.05 40.218C140.171 40.0593 140.255 39.896 140.302 39.728C140.358 39.5507 140.386 39.3873 140.386 39.238C140.386 39.126 140.367 38.986 140.33 38.818C140.302 38.6407 140.236 38.4633 140.134 38.286C140.031 38.1087 139.872 37.9593 139.658 37.838C139.452 37.7167 139.172 37.656 138.818 37.656H137.362V40.764H138.804ZM140.708 42.024L143.256 46H140.89L138.286 42.08L140.708 42.024ZM150.151 38.188C149.759 37.9733 149.358 37.796 148.947 37.656C148.546 37.516 148.168 37.446 147.813 37.446C147.375 37.446 147.029 37.5347 146.777 37.712C146.525 37.8893 146.399 38.1553 146.399 38.51C146.399 38.7527 146.493 38.972 146.679 39.168C146.875 39.3547 147.123 39.5227 147.421 39.672C147.729 39.8213 148.047 39.9567 148.373 40.078C148.672 40.19 148.966 40.3253 149.255 40.484C149.554 40.6333 149.82 40.8247 150.053 41.058C150.287 41.282 150.473 41.5667 150.613 41.912C150.753 42.248 150.823 42.6633 150.823 43.158C150.823 43.6807 150.688 44.166 150.417 44.614C150.147 45.062 149.75 45.426 149.227 45.706C148.705 45.9767 148.061 46.112 147.295 46.112C146.903 46.112 146.502 46.0747 146.091 46C145.69 45.916 145.293 45.7947 144.901 45.636C144.509 45.468 144.131 45.258 143.767 45.006L144.663 43.424C144.906 43.6013 145.167 43.76 145.447 43.9C145.737 44.0307 146.026 44.1333 146.315 44.208C146.605 44.2827 146.871 44.32 147.113 44.32C147.356 44.32 147.599 44.2873 147.841 44.222C148.093 44.1473 148.299 44.026 148.457 43.858C148.625 43.69 148.709 43.4567 148.709 43.158C148.709 42.9527 148.639 42.766 148.499 42.598C148.369 42.43 148.187 42.276 147.953 42.136C147.729 41.996 147.482 41.8747 147.211 41.772C146.894 41.6507 146.567 41.5107 146.231 41.352C145.895 41.1933 145.578 41.002 145.279 40.778C144.99 40.5447 144.752 40.26 144.565 39.924C144.388 39.5787 144.299 39.1587 144.299 38.664C144.299 38.0667 144.43 37.5487 144.691 37.11C144.962 36.6713 145.34 36.326 145.825 36.074C146.311 35.8127 146.871 35.668 147.505 35.64C148.336 35.64 149.008 35.738 149.521 35.934C150.044 36.13 150.511 36.3633 150.921 36.634L150.151 38.188ZM152.532 35.696H159.56V37.656H154.562V39.854H158.986V41.814H154.562V44.04H159.756V46H152.532V35.696Z" fill="black"/>
<path d="M45 29L176 29" stroke="black" stroke-width="2"/>
</svg>
